<svg width="11" height="11" viewBox="0 0 11 11" fill="none" xmlns="http://www.w3.org/2000/svg">
<path fill-rule="evenodd" clip-rule="evenodd" d="M10.8464 1.71864C11.0589 1.50609 11.0589 1.16148 10.8464 0.948939C10.6339 0.736392 10.2892 0.736393 10.0767 0.948939L5.89771 5.12793L1.71846 0.948694C1.50592 0.736148 1.16131 0.736148 0.948767 0.948694C0.736221 1.16124 0.736221 1.50585 0.948767 1.71839L5.12801 5.89763L0.948638 10.077C0.736092 10.2895 0.736092 10.6342 0.948638 10.8467C1.16118 11.0592 1.50579 11.0592 1.71834 10.8467L5.89771 6.66733L10.0768 10.8465C10.2894 11.059 10.634 11.059 10.8465 10.8465C11.0591 10.6339 11.0591 10.2893 10.8465 10.0768L6.6674 5.89763L10.8464 1.71864Z" fill="#ABABAB"/>
</svg>
